<?xml version="1.0" standalone="no"?>
<!DOCTYPE svg PUBLIC "-//W3C//DTD SVG 20010904//EN"
 "http://www.w3.org/TR/2001/REC-SVG-20010904/DTD/svg10.dtd">
<svg version="1.0" xmlns="http://www.w3.org/2000/svg"
 width="277.000000pt" height="116.000000pt" viewBox="0 0 277.000000 116.000000"
 preserveAspectRatio="xMidYMid meet">
<metadata>
Created by potrace 1.15, written by Peter Selinger 2001-2017
</metadata>
<g transform="translate(0.000000,116.000000) scale(0.100000,-0.100000)"
fill="#21334B" stroke="none">
<path d="M240 1050 c-91 -3 -144 -7 -117 -8 l47 -2 0 -350 0 -350 -45 0 c-25
0 -45 -4 -45 -10 0 -6 98 -10 275 -10 177 0 275 4 275 10 0 6 -13 10 -30 10
-16 0 -30 3 -30 8 0 30 118 342 137 363 28 31 89 66 98 57 4 -3 -17 -82 -46
-175 -29 -92 -53 -183 -53 -202 0 -47 32 -71 95 -71 44 0 52 4 108 56 l61 56
0 -46 c0 -46 0 -46 -35 -46 -19 0 -35 -4 -35 -10 0 -6 57 -10 150 -10 93 0
150 4 150 10 0 6 -20 10 -45 10 l-45 0 0 185 0 185 45 0 c57 0 110 -21 125
-51 7 -12 18 -76 26 -141 15 -141 32 -177 90 -196 48 -17 124 -11 159 12 36
24 25 31 -13 9 -29 -17 -31 -17 -51 1 -14 12 -21 31 -21 54 0 45 112 416 121
400 3 -7 34 -115 69 -241 35 -125 67 -224 70 -220 4 5 36 110 70 236 35 125
66 227 69 227 6 0 121 -426 121 -447 0 -8 -13 -13 -30 -13 -16 0 -30 -4 -30
-10 0 -6 53 -10 140 -10 87 0 140 4 140 10 0 6 -9 10 -20 10 -24 0 -24 -4 -3
70 l16 61 121 -3 120 -3 13 -50 c17 -69 17 -75 -12 -75 -14 0 -25 -4 -25 -10
0 -6 48 -10 125 -10 77 0 125 4 125 10 0 6 -10 10 -23 10 -22 0 -29 20 -123
353 l-101 352 -38 0 -38 0 -89 -310 c-48 -170 -93 -328 -99 -350 -14 -51 -6
-74 -120 334 -73 263 -96 331 -109 331 -13 0 -29 -46 -75 -207 -68 -242 -71
-249 -81 -208 -4 16 -30 115 -59 220 -57 212 -72 235 -98 148 -8 -26 -45 -153
-83 -281 l-68 -234 -13 62 c-7 34 -20 73 -28 87 -19 29 -81 58 -145 68 l-44 8
59 18 c71 23 85 33 114 79 27 45 28 114 1 157 -10 18 -39 42 -62 55 -41 22
-55 23 -248 24 -113 1 -188 -1 -167 -3 l37 -4 0 -287 0 -288 -49 -48 c-31 -30
-51 -44 -56 -37 -3 6 14 76 39 155 62 195 60 233 -10 256 -44 15 -101 7 -148
-21 -20 -12 -36 -16 -36 -11 0 6 23 74 50 152 28 78 50 144 50 146 0 2 -47 4
-105 4 -63 0 -105 -4 -105 -10 0 -5 5 -10 10 -10 11 0 14 -33 4 -42 -3 -4 -21
4 -40 17 -31 21 -70 31 -144 38 -14 2 -99 0 -190 -3z m206 -41 c37 -34 54 -79
54 -143 0 -110 -44 -166 -137 -174 l-53 -4 0 177 0 177 55 -4 c40 -3 62 -11
81 -29z m330 14 c-4 -10 -57 -166 -119 -348 l-113 -330 -57 -3 c-31 -2 -57 0
-57 4 0 4 25 85 55 179 53 167 56 173 95 199 45 30 80 90 80 138 0 18 -7 53
-16 78 -12 35 -13 51 -5 73 10 26 14 27 76 27 59 0 66 -2 61 -17z m445 0 c42
-25 62 -86 57 -174 -3 -65 -6 -74 -36 -100 -26 -24 -41 -29 -82 -29 l-50 0 0
160 0 160 41 0 c22 0 54 -8 70 -17z m1154 -312 c25 -85 45 -161 45 -168 0 -10
-24 -13 -101 -13 -77 0 -100 3 -96 13 2 6 16 55 31 107 52 182 69 235 72 225
2 -5 24 -79 49 -164z m-1480 57 c43 -19 42 -49 -10 -217 -26 -87 -45 -168 -43
-181 3 -22 -1 -25 -34 -28 -55 -5 -78 12 -78 55 0 20 23 106 50 193 28 87 50
165 50 174 0 19 28 21 65 4z m-390 -108 c-4 -17 -28 -95 -54 -173 l-48 -142
-46 -3 -47 -3 0 165 0 166 48 1 c26 0 65 4 87 8 67 14 67 14 60 -19z"/>
</g>
</svg>
